# xmcd
#
# Track frame offsets: 
#        150
#        21087
#        42425
#        68187
#        87837
#        118250
#        139962
#        161112
#        179325
#        205225
#        225312
#        245775
#        267487
#        297062
#        325062
#
# Disc length: 4632 seconds
#
# Revision: 3
# Processed by: cddbd v1.5PL3 Copyright (c) Steve Scherf et al.
# Submitted via: ExactAudioCopy v0.90b4
#
DISCID=df12160f
DTITLE=Michael Jackson - History (Disc2)
DYEAR=1900
DGENRE=Pop
TTITLE0=Scream
TTITLE1=They don't care about us
TTITLE2=Stranger in Moscow
TTITLE3=This time arround
TTITLE4=Earth song
TTITLE5=D.S.
TTITLE6=Money
TTITLE7=Come Together
TTITLE8=You are not alone
TTITLE9=Childhood
TTITLE10=Tobloid Junkie
TTITLE11=2Bad
TTITLE12=History
TTITLE13=Little Susie
TTITLE14=Smile
EXTD=
EXTT0=
EXTT1=
EXTT2=
EXTT3=
EXTT4=
EXTT5=
EXTT6=
EXTT7=
EXTT8=
EXTT9=
EXTT10=
EXTT11=
EXTT12=
EXTT13=
EXTT14=
PLAYORDER=
